<svg width="510" height="211" viewBox="0 0 510 211" fill="none" xmlns="http://www.w3.org/2000/svg">
<path d="M473.18 127.29L464.53 71.6901L435.56 130.3L399.59 50.1001C401.37 41.3101 403.22 30.0701 404.31 27.3501L435.93 98.0001L470.91 27.3601L488.18 124.79C488.39 125.96 488.57 126.9 488.63 127.31C488.63 127.31 487.35 127.31 487.09 127.31H473.17L473.18 127.29Z" fill="white"/>
<path d="M149.57 33.3601V97.6101C149.57 114.75 175.87 121.89 186.44 108.13C188.6 105.32 190.96 98.0201 190.96 94.6101V33.3701H205.26V99.8701C205.26 102.18 202.19 109.7 200.87 112.02C187.44 135.62 149.82 134.47 138.14 109.78C137.7 108.85 135.27 102.53 135.27 102.12V33.3601H149.57Z" fill="white"/>
<path d="M362.55 33.3601V46.1301L324.17 46.8801V68.6801H361.04V82.2001H324.17V113.76H361.8V127.29H309.87V33.3601H362.55Z" fill="white"/>
<path d="M285.03 33.3601V46.8901H263.21V127.29H248.91V46.8801C241.73 45.5901 234.36 46.2901 227.09 46.1301V33.3601H285.04H285.03Z" fill="white"/>
<path d="M39.6899 127.29H26.5199C26.4599 127.29 24.9399 127.29 24.9399 127.29C25.1499 126.77 25.3099 126.51 25.6899 125.73L71.6799 28.09C71.9499 27.5 72.0799 27.3 72.2199 27.01C72.2199 27.01 73.3199 29.04 73.6999 29.83C74.4599 31.39 79.5899 42.33 79.4399 43.32L39.6799 127.29H39.6899Z" fill="white"/>
<path d="M104.04 127.66C103.7 127.4 82.99 82.6899 79.72 76.3799C82.07 69.8799 85.22 62.9799 87.1 58.9099L117.64 125.76C118 126.51 118.35 127.24 118.28 127.21C118.28 127.21 116.88 127.28 116.83 127.28C114.1 127.28 104.24 127.81 104.04 127.65V127.66Z" fill="white"/>
<path d="M383.62 127.29L396.03 67.9199C399.25 74.9599 402.15 81.3599 405.45 89.3299L398.67 127.29H383.62Z" fill="white"/>
<path d="M28.26 161.96H30.64V185.79H28.26V161.96Z" fill="white"/>
<path d="M69.69 161.96H72.07V185.79H70.03L56.75 166.39V185.79H54.37V161.96H56.45L69.69 181.31V161.96Z" fill="white"/>
<path d="M102.2 185.79L93.42 161.96H96.01L103.43 182.59L110.85 161.96H113.44L104.66 185.79H102.21H102.2Z" fill="white"/>
<path d="M137.16 183.54H148.73V185.79H134.77V161.96H148.56V164.21H137.16V172.65H147.71V174.9H137.16V183.55V183.54Z" fill="white"/>
<path d="M178.59 186.19C176.41 186.19 174.54 185.67 172.99 184.64C171.43 183.61 170.35 182.18 169.74 180.37L171.78 179.18C172.21 180.66 173.01 181.81 174.16 182.64C175.32 183.47 176.8 183.88 178.62 183.88C180.44 183.88 181.77 183.49 182.76 182.71C183.75 181.93 184.24 180.89 184.24 179.59C184.24 178.29 183.79 177.4 182.88 176.76C181.97 176.13 180.47 175.47 178.39 174.79C175.92 173.97 174.28 173.32 173.49 172.82C171.67 171.73 170.77 170.15 170.77 168.09C170.77 166.03 171.47 164.48 172.88 163.31C174.29 162.14 176.02 161.56 178.09 161.56C179.95 161.56 181.56 162.04 182.92 163.01C184.28 163.97 185.29 165.21 185.95 166.7L183.94 167.82C182.85 165.19 180.9 163.87 178.08 163.87C176.6 163.87 175.41 164.23 174.51 164.96C173.6 165.69 173.15 166.7 173.15 167.99C173.15 169.17 173.56 170.06 174.38 170.65C175.2 171.24 176.55 171.84 178.43 172.45C179.29 172.74 179.91 172.95 180.29 173.08C180.66 173.2 181.21 173.41 181.92 173.69C182.63 173.97 183.16 174.22 183.5 174.44C183.84 174.66 184.25 174.95 184.74 175.33C185.23 175.7 185.58 176.08 185.8 176.45C186.02 176.82 186.21 177.28 186.38 177.81C186.55 178.34 186.63 178.92 186.63 179.53C186.63 181.55 185.89 183.17 184.42 184.38C182.94 185.59 181 186.2 178.6 186.2L178.59 186.19Z" fill="white"/>
<path d="M223.12 161.96V164.21H215.8V185.79H213.42V164.21H206.1V161.96H223.12Z" fill="white"/>
<path d="M244.8 161.96H247.18V185.79H244.8V161.96Z" fill="white"/>
<path d="M292.7 161.96V185.79H290.32V165.57L281.98 179.53H281.64L273.3 165.57V185.79H270.92V161.96H273.84L281.81 175.3L289.78 161.96H292.7Z" fill="white"/>
<path d="M318.81 183.54H330.38V185.79H316.42V161.96H330.21V164.21H318.81V172.65H329.36V174.9H318.81V183.55V183.54Z" fill="white"/>
<path d="M368.07 161.96H370.45V185.79H368.41L355.13 166.39V185.79H352.75V161.96H354.83L368.07 181.31V161.96Z" fill="white"/>
<path d="M409.16 161.96V164.21H401.84V185.79H399.46V164.21H392.14V161.96H409.16Z" fill="white"/>
<path d="M449.2 182.6C446.82 184.99 443.9 186.19 440.45 186.19C437 186.19 434.08 184.99 431.7 182.6C429.32 180.21 428.12 177.29 428.12 173.87C428.12 170.45 429.31 167.53 431.7 165.14C434.08 162.75 437 161.55 440.45 161.55C443.9 161.55 446.82 162.75 449.2 165.14C451.58 167.54 452.77 170.45 452.77 173.87C452.77 177.29 451.58 180.21 449.2 182.6ZM433.37 180.97C435.28 182.91 437.64 183.88 440.45 183.88C443.26 183.88 445.62 182.91 447.53 180.97C449.44 179.03 450.39 176.66 450.39 173.87C450.39 171.08 449.44 168.71 447.53 166.77C445.62 164.83 443.26 163.86 440.45 163.86C437.64 163.86 435.28 164.83 433.37 166.77C431.46 168.71 430.51 171.08 430.51 173.87C430.51 176.66 431.46 179.03 433.37 180.97Z" fill="white"/>
<path d="M481.77 186.19C479.59 186.19 477.72 185.67 476.17 184.64C474.61 183.61 473.53 182.18 472.92 180.37L474.96 179.18C475.39 180.66 476.19 181.81 477.34 182.64C478.5 183.47 479.98 183.88 481.8 183.88C483.62 183.88 484.95 183.49 485.94 182.71C486.93 181.93 487.42 180.89 487.42 179.59C487.42 178.29 486.97 177.4 486.06 176.76C485.15 176.13 483.65 175.47 481.57 174.79C479.1 173.97 477.46 173.32 476.67 172.82C474.85 171.73 473.95 170.15 473.95 168.09C473.95 166.03 474.65 164.48 476.06 163.31C477.47 162.14 479.2 161.56 481.27 161.56C483.13 161.56 484.74 162.04 486.1 163.01C487.46 163.97 488.47 165.21 489.13 166.7L487.12 167.82C486.03 165.19 484.08 163.87 481.26 163.87C479.78 163.87 478.59 164.23 477.69 164.96C476.78 165.69 476.33 166.7 476.33 167.99C476.33 169.17 476.74 170.06 477.56 170.65C478.38 171.24 479.73 171.84 481.61 172.45C482.47 172.74 483.09 172.95 483.47 173.08C483.84 173.2 484.39 173.41 485.1 173.69C485.81 173.97 486.34 174.22 486.68 174.44C487.02 174.66 487.43 174.95 487.92 175.33C488.41 175.7 488.76 176.08 488.98 176.45C489.2 176.82 489.39 177.28 489.56 177.81C489.73 178.34 489.81 178.92 489.81 179.53C489.81 181.55 489.07 183.17 487.6 184.38C486.12 185.59 484.18 186.2 481.78 186.2L481.77 186.19Z" fill="white"/>
</svg>
